<svg xmlns="http://www.w3.org/2000/svg" version="1.1" xmlns:xlink="http://www.w3.org/1999/xlink" xmlns:svgjs="http://svgjs.com/svgjs" width="1430" height="300" transform="matrix(1,0,0,1,0,0)">
  <text font-family="DM Sans" font-size="260" text-anchor="left" x="310" charspacing="20px">
    <tspan dy="239.20000000000002" x="310">Lumios</tspan>
  </text>
  <path fill="none" d="M150,20.833A20.83333333333334,20.83333333333334,90,0,1,170.833,0L170.833,0A20.83333333333334,20.83333333333334,90,0,1,191.667,20.833L191.667,29.167A20.833333333333346,20.833333333333346,-270,0,1,170.833,50L170.833,50A20.83333333333334,20.83333333333334,90,0,1,150,29.167Z"/>
  <path fill="none" d="M150,50 191.66666666666669,50 191.66666666666669,100 150,100z"/>
  <path fill="none" d="M150,100 191.66666666666669,100 191.66666666666669,150 150,150z"/>
  <path fill="none" d="M150,150 191.66666666666669,150 191.66666666666669,200 150,200z"/>
  <path transform="matrix(1,0,0,1,80,50)" d="M0,0 41.66666666666667,0 41.66666666666667,50 0,50z M0,50 41.66666666666667,50 41.66666666666667,100 0,100z M0,100 41.66666666666667,100 41.66666666666667,150 0,150z M0,150 41.66666666666667,150 41.66666666666667,200 0,200z M50,150 91.66666666666667,150 91.66666666666667,200 50,200z M100,150 141.66666666666669,150 141.66666666666669,200 100,200z"/>
</svg>